{
   "accessors" : [
      {
         "bufferView" : 2,
         "byteOffset" : 0,
         "componentType" : 5126,
         "count" : 1506,
         "max" : [ 1, 1, 1, 1 ],
         "min" : [ 0, 0.006584956776350737, 0.006584956776350737, 1 ],
         "name" : "accessor_color_m0-PolyPaper21_-98906",
         "type" : "VEC4"
      },
      {
         "bufferView" : 0,
         "byteOffset" : 0,
         "componentType" : 5123,
         "count" : 2244,
         "max" : [ 1505 ],
         "min" : [ 0 ],
         "name" : "accessor_indices_0_m0-PolyPaper21_-98906",
         "type" : "SCALAR"
      },
      {
         "bufferView" : 1,
         "byteOffset" : 18072,
         "componentType" : 5126,
         "count" : 1506,
         "max" : [ 0.9840647, 0.9994345, 0.9982741000000001 ],
         "min" : [ -0.9853274, -0.9972808, -0.998855 ],
         "name" : "accessor_normal_m0-PolyPaper21_-98906",
         "type" : "VEC3"
      },
      {
         "bufferView" : 1,
         "byteOffset" : 0,
         "componentType" : 5126,
         "count" : 1506,
         "max" : [ 0.4624336, 0.9841182000000001, -0.6183123 ],
         "min" : [ -0.1398961, 0.5125083, -1.341382 ],
         "name" : "accessor_position_m0-PolyPaper21_-98906",
         "type" : "VEC3"
      }
   ],
   "asset" : {
      "copyright" : "Unknown",
      "generator" : "glTF 1-to-2 Upgrader for Google Blocks",
      "version" : "2.0"
   },
   "bufferViews" : [
      {
         "buffer" : 0,
         "byteLength" : 4488,
         "byteOffset" : 0,
         "name" : "ushortBufferView",
         "target" : 34963
      },
      {
         "buffer" : 0,
         "byteLength" : 36144,
         "byteOffset" : 4488,
         "byteStride" : 12,
         "name" : "vec3BufferView",
         "target" : 34962
      },
      {
         "buffer" : 0,
         "byteLength" : 24096,
         "byteOffset" : 40632,
         "byteStride" : 16,
         "name" : "vec4BufferView",
         "target" : 34962
      }
   ],
   "buffers" : [
      {
         "byteLength" : 64728,
         "name" : "model",
         "uri" : "model.bin"
      }
   ],
   "materials" : [
      {
         "alphaMode" : "OPAQUE",
         "doubleSided" : false,
         "name" : "BlocksPaper",
         "pbrMetallicRoughness" : {
            "baseColorFactor" : [ 1, 1, 1, 1 ],
            "metallicFactor" : 0,
            "roughnessFactor" : 0.6
         }
      },
      {
         "alphaMode" : "BLEND",
         "doubleSided" : false,
         "name" : "BlocksGlass",
         "pbrMetallicRoughness" : {
            "baseColorFactor" : [ 0.2, 0.2, 1, 0.3 ],
            "metallicFactor" : 1,
            "roughnessFactor" : 0.4
         }
      },
      {
         "alphaMode" : "OPAQUE",
         "doubleSided" : true,
         "name" : "BlocksGem",
         "pbrMetallicRoughness" : {
            "baseColorFactor" : [ 1, 0.4, 1, 1 ],
            "metallicFactor" : 0,
            "roughnessFactor" : 0.1
         }
      }
   ],
   "meshes" : [
      {
         "name" : "mesh_m0-PolyPaper21_-98906",
         "primitives" : [
            {
               "attributes" : {
                  "COLOR_0" : 0,
                  "NORMAL" : 2,
                  "POSITION" : 3
               },
               "indices" : 1,
               "material" : 0,
               "mode" : 4
            }
         ]
      }
   ],
   "nodes" : [
      {
         "mesh" : 0,
         "name" : "node_MeshObject-259121152-PolyPaper21"
      }
   ],
   "scene" : 0,
   "scenes" : [
      {
         "extras" : {},
         "name" : "defaultScene",
         "nodes" : [ 0 ]
      }
   ]
}
